<svg width="1008" height="403" viewBox="0 0 1008 403" fill="none" xmlns="http://www.w3.org/2000/svg">
<g clip-path="url(#clip0_3990_43214)">
<path opacity="0.7" fill-rule="evenodd" clip-rule="evenodd" d="M-7.23466 154.371C69.338 169.9 79.9232 270.28 134.013 326.661C202.955 398.524 341.606 419.604 342.748 519.183C343.964 625.245 235.968 700.019 138.781 742.507C46.1748 782.993 -66.6815 792.519 -149.297 734.298C-222.825 682.482 -204.53 576.557 -221.931 488.305C-238.184 405.876 -290.256 320.504 -244.82 249.834C-196.259 174.303 -95.2384 136.524 -7.23466 154.371Z" stroke="#40BF7F" stroke-width="5"/>
<path opacity="0.7" fill-rule="evenodd" clip-rule="evenodd" d="M481.765 -528.629C558.338 -513.1 568.923 -412.72 623.013 -356.339C691.955 -284.476 830.606 -263.396 831.748 -163.817C832.964 -57.7549 724.968 17.0186 627.781 59.5072C535.175 99.9933 422.319 109.519 339.703 51.2981C266.175 -0.518417 284.47 -106.443 267.069 -194.695C250.816 -277.124 198.744 -362.496 244.18 -433.166C292.741 -508.697 393.762 -546.476 481.765 -528.629Z" stroke="#40BF7F" stroke-width="5"/>
<path opacity="0.7" fill-rule="evenodd" clip-rule="evenodd" d="M984.067 153.656C1048.16 166.641 1057.02 250.583 1102.29 297.731C1159.99 357.825 1276.04 375.453 1276.99 458.725C1278.01 547.418 1187.62 609.947 1106.28 645.477C1028.77 679.333 934.312 687.299 865.165 638.613C803.625 595.282 818.937 506.704 804.373 432.904C790.77 363.974 747.188 292.582 785.216 233.485C825.86 170.323 910.411 138.731 984.067 153.656Z" stroke="#40BF7F" stroke-width="5"/>
</g>
<defs>
<clipPath id="clip0_3990_43214">
<rect width="1008" height="403" rx="20" fill="white"/>
</clipPath>
</defs>
</svg>
