<svg width="25" height="22" viewBox="0 0 25 22" fill="none" xmlns="http://www.w3.org/2000/svg">
<path d="M16.9998 17.6786C17.5171 17.4748 18.0185 17.2325 18.4998 16.9539V20.7499C18.4998 20.9488 18.4207 21.1396 18.2801 21.2802C18.1394 21.4209 17.9487 21.4999 17.7498 21.4999C17.5509 21.4999 17.3601 21.4209 17.2194 21.2802C17.0788 21.1396 16.9998 20.9488 16.9998 20.7499V17.6786ZM18.1023 9.38831L12.8523 6.588C12.6771 6.49853 12.4738 6.48145 12.2862 6.54044C12.0985 6.59943 11.9416 6.72976 11.8491 6.90337C11.7567 7.07697 11.7361 7.27994 11.7919 7.46855C11.8476 7.65717 11.9753 7.81633 12.1473 7.91175L16.531 10.2499L18.1248 9.4005L18.1023 9.38831ZM24.1023 6.588L12.8523 0.588C12.7438 0.53022 12.6227 0.5 12.4998 0.5C12.3768 0.5 12.2558 0.53022 12.1473 0.588L0.897266 6.588C0.77727 6.65195 0.676916 6.74732 0.606941 6.8639C0.536965 6.98049 0.5 7.1139 0.5 7.24988C0.5 7.38585 0.536965 7.51926 0.606941 7.63585C0.676916 7.75243 0.77727 7.8478 0.897266 7.91175L3.49977 9.30019V13.8396C3.49899 14.208 3.63457 14.5636 3.88039 14.838C5.10852 16.2058 7.86008 18.4999 12.4998 18.4999C14.0382 18.5126 15.565 18.2339 16.9998 17.6786V10.5002L16.531 10.2499L12.4998 12.3996L4.60883 8.18738L2.84352 7.24988L12.4998 2.10019L22.156 7.24988L20.3954 8.18738H20.3898L18.1248 9.4005C18.2388 9.46634 18.3335 9.56105 18.3993 9.67509C18.4652 9.78914 18.4998 9.91851 18.4998 10.0502V16.9539C19.4778 16.3894 20.3616 15.6754 21.1191 14.838C21.365 14.5636 21.5005 14.208 21.4998 13.8396V9.30019L24.1023 7.91175C24.2223 7.8478 24.3226 7.75243 24.3926 7.63585C24.4626 7.51926 24.4995 7.38585 24.4995 7.24988C24.4995 7.1139 24.4626 6.98049 24.3926 6.8639C24.3226 6.74732 24.2223 6.65195 24.1023 6.588Z" fill="black"/>
</svg>
