<svg width="50" height="19" viewBox="0 0 50 19" fill="none" xmlns="http://www.w3.org/2000/svg">
<rect x="0.5" width="49" height="19" rx="9.5" fill="#EAECF0"/>
<path d="M12.2635 14V11.936H7.87147V10.964L12.2395 5.06H13.3675V10.964H14.5315V11.936H13.3675V14H12.2635ZM8.75947 11.384L8.59147 10.964H12.2635V6.044L12.6115 6.14L8.75947 11.384ZM16.3278 14V12.56H17.4918V14H16.3278ZM23.1724 14.144C22.4604 14.144 21.8364 13.952 21.3004 13.568C20.7724 13.176 20.3604 12.636 20.0644 11.948C19.7684 11.252 19.6204 10.444 19.6204 9.524C19.6204 8.604 19.7684 7.8 20.0644 7.112C20.3604 6.416 20.7724 5.876 21.3004 5.492C21.8284 5.108 22.4484 4.916 23.1604 4.916C23.8724 4.916 24.4924 5.108 25.0204 5.492C25.5484 5.876 25.9604 6.416 26.2564 7.112C26.5604 7.8 26.7124 8.604 26.7124 9.524C26.7124 10.444 26.5644 11.252 26.2684 11.948C25.9724 12.644 25.5564 13.184 25.0204 13.568C24.4924 13.952 23.8764 14.144 23.1724 14.144ZM23.1724 13.052C23.6524 13.052 24.0684 12.908 24.4204 12.62C24.7724 12.324 25.0444 11.912 25.2364 11.384C25.4364 10.856 25.5364 10.236 25.5364 9.524C25.5364 8.812 25.4364 8.192 25.2364 7.664C25.0444 7.136 24.7684 6.728 24.4084 6.44C24.0564 6.152 23.6404 6.008 23.1604 6.008C22.6804 6.008 22.2644 6.152 21.9124 6.44C21.5604 6.728 21.2844 7.136 21.0844 7.664C20.8924 8.192 20.7964 8.812 20.7964 9.524C20.7964 10.228 20.8924 10.844 21.0844 11.372C21.2844 11.9 21.5604 12.312 21.9124 12.608C22.2724 12.904 22.6924 13.052 23.1724 13.052Z" fill="#344054"/>
<path d="M38.3645 5.25495L39.2445 7.01495C39.3645 7.25995 39.6845 7.49495 39.9545 7.53995L41.5495 7.80495C42.5695 7.97495 42.8095 8.71495 42.0745 9.44495L40.8345 10.6849C40.6245 10.8949 40.5095 11.2999 40.5745 11.5899L40.9295 13.1249C41.2095 14.3399 40.5645 14.8099 39.4895 14.1749L37.9945 13.2899C37.7245 13.1299 37.2795 13.1299 37.0045 13.2899L35.5095 14.1749C34.4395 14.8099 33.7895 14.3349 34.0695 13.1249L34.4245 11.5899C34.4895 11.2999 34.3745 10.8949 34.1645 10.6849L32.9245 9.44495C32.1945 8.71495 32.4295 7.97495 33.4495 7.80495L35.0445 7.53995C35.3095 7.49495 35.6295 7.25995 35.7495 7.01495L36.6295 5.25495C37.1095 4.29995 37.8895 4.29995 38.3645 5.25495Z" fill="#1AB265"/>
</svg>
