<svg width="13" height="13" viewBox="0 0 13 13" fill="none" xmlns="http://www.w3.org/2000/svg">
<g id="vuesax/linear/star">
<g id="star">
<path id="Vector" d="M7.36447 2.25495L8.24447 4.01495C8.36447 4.25995 8.68447 4.49495 8.95447 4.53995L10.5495 4.80495C11.5695 4.97495 11.8095 5.71495 11.0745 6.44495L9.83447 7.68495C9.62447 7.89495 9.50947 8.29995 9.57447 8.58995L9.92947 10.1249C10.2095 11.3399 9.56447 11.8099 8.48947 11.1749L6.99447 10.2899C6.72447 10.1299 6.27947 10.1299 6.00447 10.2899L4.50947 11.1749C3.43947 11.8099 2.78947 11.3349 3.06947 10.1249L3.42447 8.58995C3.48947 8.29995 3.37447 7.89495 3.16447 7.68495L1.92447 6.44495C1.19447 5.71495 1.42947 4.97495 2.44947 4.80495L4.04447 4.53995C4.30947 4.49495 4.62947 4.25995 4.74947 4.01495L5.62947 2.25495C6.10947 1.29995 6.88947 1.29995 7.36447 2.25495Z" fill="#1AB265"/>
</g>
</g>
</svg>
